<svg width="700" height="700" viewBox="0 0 700 700" fill="none" xmlns="http://www.w3.org/2000/svg">
<rect width="700" height="700" rx="160" fill="#020019"/>
<path d="M376.379 485.747C374.067 498.738 359.773 509.261 346.815 509.464C332.901 509.682 319.063 509.699 305.144 509.659L233.989 509.534L218.363 509.472L192.964 509.492C185.382 509.501 172.292 510.196 165.601 507.989C157.373 505.278 150.57 499.393 146.703 491.642C143.143 484.438 143.164 478.046 143.186 470.173C143.208 462.565 143.222 454.941 143.222 447.331L143.172 321.236C143.17 310.945 142.743 296.346 143.242 286.379C143.402 283.422 143.973 280.502 144.936 277.703C148.703 266.764 157.232 261.305 165.784 254.136L188.342 235.253L303.337 138.714C310.619 132.601 319.828 123.71 327.888 119.153C336.504 114.281 352.963 115.083 360.813 121.371C369.324 128.187 378.05 135.676 386.562 142.791L443.386 190.61C462.394 206.406 481.317 222.306 500.154 238.306C510.845 247.258 521.815 256 532.169 265.333C542.997 275.093 541.865 288.593 541.874 301.646L541.881 323.061C541.88 329.748 542.547 343.773 540.429 349.543C539.5 353.647 536.7 359.014 533.577 361.825C523.295 374.929 501.91 376.13 489.081 366.083C482.296 360.818 477.92 353.04 476.943 344.508C476.185 338.056 476.577 323.555 476.59 316.561C476.611 308.392 473.101 300.604 466.885 295.303C451.198 281.925 434.454 268.28 418.906 255.313L374.601 218.13C356.013 202.531 328.907 202.53 310.319 218.129L226.328 288.608C214.999 298.115 208.455 312.148 208.503 326.937C208.575 349.194 208.701 371.602 208.713 393.93C208.728 421.746 231.17 444.481 258.987 444.522L285.838 444.561L326.888 444.515C341.729 444.498 356.799 442.416 367.987 454.061C372.461 458.718 376.555 465.264 377.044 471.827C377.769 477.003 377.816 480.67 376.379 485.747Z" fill="white"/>
<path d="M395.33 365.026C401.463 363.427 405.36 364.358 411.342 365.673C415.415 366.569 419.476 367.515 423.526 368.511C449.889 374.96 475.897 382.771 501.443 391.911C507.777 394.17 514.021 396.669 520.163 399.404C523.271 400.778 526.77 402.282 529.657 404.047C535.128 407.391 539.789 412.821 541.445 419.014C544.508 430.484 537.142 439.07 530.562 447.412C528.426 450.12 525.794 452.647 524.006 455.597C523.124 457.083 522.858 459.239 523.052 460.937C523.263 462.809 523.879 464.612 524.86 466.222C526.352 468.666 530.835 473.554 532.943 475.984L547.725 493.013C549.496 495.032 552.531 497.975 553.736 500.253C560.068 512.214 551.992 525.575 543.352 533.915C535.553 541.009 523.283 548.343 512.572 543.368C511.359 542.808 510.228 542.09 509.207 541.233C508.297 540.471 507.136 539.259 506.257 538.389L501.328 533.52L485.439 518C483.246 515.873 480.263 512.683 477.716 511.254C473.833 509.078 469.329 509.024 465.223 510.641C462.929 511.545 460.963 512.97 458.927 514.356C456.085 516.297 453.279 518.289 450.51 520.334C446.095 523.563 442.627 526.635 437.245 528.15C432.552 529.48 427.521 528.874 423.285 526.47C415.278 521.968 412.737 514.318 410.012 506.228L405.727 493.538C398.373 471.737 391.518 449.771 385.167 427.658C383.217 420.578 381.403 413.461 379.724 406.312C379.124 403.796 378.547 401.274 377.995 398.747C377.218 395.237 376.559 392.744 376.578 389.128C376.562 384.847 377.655 380.632 379.75 376.891C383.258 370.741 388.555 366.918 395.33 365.026Z" fill="white"/>
</svg>
